# xmcd
#
# Track frame offsets: 
#        150
#        14110
#        26820
#        41387
#        60282
#        73225
#        86162
#        98762
#        111490
#        131340
#        146277
#        160390
#        173732
#        189012
#
# Disc length: 2618 seconds
#
# Revision: 0
# Processed by: cddbd v1.5.2PL0 Copyright (c) Steve Scherf et al.
# Submitted via: ExactAudioCopy v0.95b3
#
DISCID=ba0a380e
DTITLE=The Three Bedroom Ramblers - What Was The Question
DYEAR=1997
DGENRE=Blues
TTITLE0=She's Into Something
TTITLE1=Heart Of Mine
TTITLE2=Baby Don't Tear My Clothes
TTITLE3=Roadrunner
TTITLE4=What's Getting Wrong With You
TTITLE5=Lost Someone
TTITLE6=Rosa Lee
TTITLE7=Better Get Your Hat
TTITLE8=Your Phone Is Ringing
TTITLE9=Watch Dog
TTITLE10=I Made A Mistake
TTITLE11=If I Could Be With You
TTITLE12=Things Have Gone To Pieces
TTITLE13=Mortal Coil Shuffle
EXTD=
EXTT0=
EXTT1=
EXTT2=
EXTT3=
EXTT4=
EXTT5=
EXTT6=
EXTT7=
EXTT8=
EXTT9=
EXTT10=
EXTT11=
EXTT12=
EXTT13=
PLAYORDER=
